<svg width="67" height="67" viewBox="0 0 67 67" fill="none" xmlns="http://www.w3.org/2000/svg">
<path d="M66.1333 0H52.9062V13.235H66.1333V0Z" fill="#B1DFFF" fill-opacity="0.6"/>
<path d="M52.9048 0H39.6777V13.235H52.9048V0Z" fill="#B1DFFF" fill-opacity="0.6"/>
<path d="M66.1333 13.2354H52.9062V26.4698H66.1333V13.2354Z" fill="#B1DFFF" fill-opacity="0.35"/>
<path d="M39.6765 26.4707H26.4492V39.7057H39.6765V26.4707Z" fill="#B1DFFF" fill-opacity="0.35"/>
<path d="M26.448 0H13.2207V13.235H26.448V0Z" fill="#B1DFFF" fill-opacity="0.6"/>
<path d="M52.9048 26.4707H39.6777V39.7057H52.9048V26.4707Z" fill="#B1DFFF" fill-opacity="0.35"/>
<path d="M66.1333 33.0882C66.1333 29.4335 63.1724 26.4707 59.5198 26.4707C55.8672 26.4707 52.9062 29.4335 52.9062 33.0882C52.9062 36.743 55.8672 39.7057 59.5198 39.7057C63.1724 39.7057 66.1333 36.743 66.1333 33.0882Z" fill="#B1DFFF" fill-opacity="0.35"/>
<path d="M39.6765 6.61749C39.6765 2.96274 36.7153 0 33.0627 0C29.4102 0 26.4492 2.96274 26.4492 6.61749C26.4492 10.2722 29.4102 13.235 33.0627 13.235C36.7153 13.235 39.6765 10.2722 39.6765 6.61749Z" fill="#B1DFFF" fill-opacity="0.6"/>
<path d="M13.2271 33.0882C13.2271 29.4335 10.2661 26.4707 6.61353 26.4707C2.96095 26.4707 0 29.4335 0 33.0882C0 36.743 2.96095 39.7057 6.61353 39.7057C10.2661 39.7057 13.2271 36.743 13.2271 33.0882Z" fill="#B1DFFF" fill-opacity="0.6"/>
<path d="M39.6765 59.5569C39.6765 55.9022 36.7153 52.9395 33.0627 52.9395C29.4102 52.9395 26.4492 55.9022 26.4492 59.5569C26.4492 63.2117 29.4102 66.1745 33.0627 66.1745C36.7153 66.1745 39.6765 63.2117 39.6765 59.5569Z" fill="#B1DFFF" fill-opacity="0.35"/>
<path d="M39.6765 13.2344H26.4492V26.4694H39.6765V13.2344Z" fill="#B1DFFF" fill-opacity="0.35"/>
<path d="M26.448 26.4707H13.2207V39.7057H26.448V26.4707Z" fill="#B1DFFF" fill-opacity="0.35"/>
<path d="M39.6765 39.7061H26.4492V52.9405H39.6765V39.7061Z" fill="#B1DFFF" fill-opacity="0.35"/>
<path d="M66.1333 39.7051H52.9062V52.9401H66.1333V39.7051Z" fill="#B1DFFF" fill-opacity="0.35"/>
<path d="M66.1333 52.9404H52.9062V66.1749H66.1333V52.9404Z" fill="#B1DFFF" fill-opacity="0.35"/>
<path d="M52.9048 52.9395H39.6777V66.1745H52.9048V52.9395Z" fill="#B1DFFF" fill-opacity="0.35"/>
<path d="M26.448 52.9395H13.2207V66.1745H26.448V52.9395Z" fill="#B1DFFF" fill-opacity="0.35"/>
<path d="M13.2271 52.9395H0V66.1745H13.2271V52.9395Z" fill="#B1DFFF" fill-opacity="0.6"/>
<path d="M13.2271 39.7051H0V52.9396H13.2271V39.7051Z" fill="#B1DFFF" fill-opacity="0.6"/>
<path d="M13.2271 13.2344H0V26.4694H13.2271V13.2344Z" fill="#B1DFFF" fill-opacity="0.6"/>
<path d="M13.2271 0H0V13.2345H13.2271V0Z" fill="#B1DFFF" fill-opacity="0.6"/>
</svg>
